<svg width="48" height="43" viewBox="0 0 48 43" fill="none" xmlns="http://www.w3.org/2000/svg">
<g clip-path="url(#clip0)">
<path d="M44.01 25.1099L47.9494 7.77658C48.2338 6.52508 47.2826 5.33333 45.9992 5.33333H13.2673L12.5035 1.59917C12.3132 0.668417 11.4942 0 10.5441 0H2C0.895417 0 0 0.895417 0 2V3.33333C0 4.43792 0.895417 5.33333 2 5.33333H7.82358L13.6776 33.9529C12.2771 34.7583 11.3333 36.2685 11.3333 38C11.3333 40.5773 13.4227 42.6667 16 42.6667C18.5773 42.6667 20.6667 40.5773 20.6667 38C20.6667 36.6938 20.1294 35.5138 19.2647 34.6667H36.7352C35.8706 35.5138 35.3333 36.6938 35.3333 38C35.3333 40.5773 37.4227 42.6667 40 42.6667C42.5773 42.6667 44.6667 40.5773 44.6667 38C44.6667 36.1523 43.5927 34.5557 42.0351 33.7996L42.4948 31.7766C42.7792 30.5251 41.828 29.3333 40.5446 29.3333H18.1764L17.631 26.6667H42.0597C42.9936 26.6667 43.8031 26.0205 44.01 25.1099Z" fill="white"/>
</g>
<defs>
<clipPath id="clip0">
<rect width="48" height="42.6667" fill="white"/>
</clipPath>
</defs>
</svg>
