<svg width="64" height="64" viewBox="0 0 64 64" fill="none" xmlns="http://www.w3.org/2000/svg">
<rect width="64" height="64" rx="10" fill="url(#paint0_linear)"/>
<path d="M41 35.2C41 38.26 38.66 40.6 35.6 40.6C32.54 40.6 30.2 38.26 30.2 35.2C30.2 32.14 32.54 29.8 35.6 29.8C38.66 29.8 41 32.14 41 35.2ZM50 26.2V46C50 47.98 48.38 49.6 46.4 49.6H17.6C15.62 49.6 14 47.98 14 46V26.2C14 24.22 15.62 22.6 17.6 22.6V20.8H24.8V22.6H28.4L30.2 19H41L42.8 22.6H46.4C48.38 22.6 50 24.22 50 26.2ZM23.9 29.8C23.9 28.36 22.64 27.1 21.2 27.1C19.76 27.1 18.5 28.36 18.5 29.8C18.5 31.24 19.76 32.5 21.2 32.5C22.64 32.5 23.9 31.24 23.9 29.8ZM44.6 35.2C44.6 30.16 40.64 26.2 35.6 26.2C30.56 26.2 26.6 30.16 26.6 35.2C26.6 40.24 30.56 44.2 35.6 44.2C40.64 44.2 44.6 40.24 44.6 35.2Z" fill="white"/>
<defs>
<linearGradient id="paint0_linear" x1="-10.5" y1="-11.5" x2="72.5" y2="85" gradientUnits="userSpaceOnUse">
<stop stop-color="#FF8B8B"/>
<stop offset="1" stop-color="#FDB58D"/>
</linearGradient>
</defs>
</svg>
