<svg width="64" height="64" viewBox="0 0 64 64" fill="none" xmlns="http://www.w3.org/2000/svg">
<rect width="64" height="64" rx="10" fill="url(#paint0_linear)"/>
<path d="M49.9776 22.6118C50.0418 22.8444 49.9608 23.101 49.8252 23.3015L45.5022 29.734C45.3418 29.9826 45.0049 30.1189 44.7234 30.1189C44.6432 30.1189 44.4186 30.1029 44.3312 30.0788L40.8664 29.2287V44.4676C40.8664 44.9328 40.5375 45.2696 40.0643 45.2696H23.2213C22.7481 45.2696 22.4193 44.9328 22.4193 44.4676V29.2287L19.3073 30.0869C18.9464 30.1991 18.6336 30.0548 18.4331 29.742L14.1421 23.3256C14.0058 23.1171 13.9657 22.8845 14.0299 22.6519C14.086 22.4113 14.2544 22.2509 14.471 22.1386L23.2213 18H27.2316C27.7048 18 28.0336 18.3288 28.0336 18.802C28.0336 20.4543 30.3515 21.6253 32.0037 21.6253C33.656 21.6253 36.0541 20.4623 36.0541 18.802C36.0541 18.3369 36.3829 18 36.8561 18H40.8664L49.5285 22.0584C49.7531 22.1706 49.9135 22.3712 49.9776 22.6118Z" fill="white"/>
<defs>
<linearGradient id="paint0_linear" x1="-10.5" y1="-11.5" x2="72.5" y2="85" gradientUnits="userSpaceOnUse">
<stop stop-color="#FF8B8B"/>
<stop offset="1" stop-color="#FDB58D"/>
</linearGradient>
</defs>
</svg>
