<svg width="64" height="64" viewBox="0 0 64 64" fill="none" xmlns="http://www.w3.org/2000/svg">
<rect width="64" height="64" rx="10" fill="url(#paint0_linear)"/>
<path d="M37.5714 21.7529C39.6925 22.6108 41.5088 24.0831 42.7872 25.9807C44.0655 27.8784 44.7475 30.1148 44.7456 32.4029C44.7475 34.6908 44.0654 36.9271 42.7871 38.8246C41.5087 40.7221 39.6924 42.1942 37.5714 43.052V45.4477C40.3167 44.5436 42.7063 42.7956 44.3995 40.4531C46.0926 38.1106 47.0027 35.2932 46.9999 32.4029C46.9999 26.318 43.0494 21.1529 37.5714 19.3503V21.7529ZM37.5714 27.4092C38.2932 28.0256 38.8725 28.7915 39.2691 29.6539C39.6657 30.5162 39.8703 31.4545 39.8685 32.4037C39.8704 33.3528 39.6659 34.291 39.2692 35.1533C38.8726 36.0155 38.2933 36.7813 37.5714 37.3974V39.8352C40.1342 38.3514 41.8571 35.5786 41.8571 32.4037C41.8577 30.8979 41.4619 29.4184 40.7097 28.1139C39.9574 26.8095 38.875 25.726 37.5714 24.9723V27.4092ZM17.8571 39.2677H24.7142L32.4285 48.7092C33.2856 49.9434 35.2914 49.85 35.8571 48.4503V16.4257C35.1619 15.0269 33.3379 14.9146 32.4285 16.0983L24.7142 25.5723H17.8571C15.6619 25.5723 15.2856 25.9674 15.2856 28.1129V36.6946C15.2856 38.7877 15.7142 39.2677 17.8571 39.2677Z" fill="white"/>
<defs>
<linearGradient id="paint0_linear" x1="-10.5" y1="-11.5" x2="72.5" y2="85" gradientUnits="userSpaceOnUse">
<stop stop-color="#FF8B8B"/>
<stop offset="1" stop-color="#FDB58D"/>
</linearGradient>
</defs>
</svg>
