<svg width="64" height="64" viewBox="0 0 64 64" fill="none" xmlns="http://www.w3.org/2000/svg">
<rect width="64" height="64" rx="10" fill="url(#paint0_linear)"/>
<path d="M45.5 50H18.5C17.2578 50 16.1973 49.5605 15.3184 48.6816C14.4395 47.8027 14 46.7422 14 45.5V23C14 21.7578 14.4395 20.6973 15.3184 19.8184C16.1973 18.9395 17.2578 18.5 18.5 18.5H20.75L23 15.125C23.4219 14.375 24.9219 14 27.5 14H36.5C39.0781 14 40.5781 14.375 41 15.125L43.25 18.5H45.5C46.7422 18.5 47.8027 18.9395 48.6816 19.8184C49.5605 20.6973 50 21.7578 50 23V45.5C50 46.7422 49.5605 47.8027 48.6816 48.6816C47.8027 49.5605 46.7422 50 45.5 50ZM25.25 16.25L23 19.625L26.375 23L29.75 18.5L25.25 16.25ZM28.0977 24.582C27.5117 25.0273 26.9375 25.25 26.375 25.25C25.625 25.25 24.875 24.875 24.125 24.125L21.875 21.875C21.5703 21.5703 21.3125 21.1953 21.1016 20.75H18.5C17.8906 20.75 17.3633 20.9668 16.918 21.4004C16.4727 21.834 16.25 22.3672 16.25 23V45.5C16.25 46.1328 16.4668 46.666 16.9004 47.0996C17.334 47.5332 17.8672 47.75 18.5 47.75H25.25L29.7852 26.0586L28.0977 24.582ZM38.75 16.25L34.25 18.5L37.625 23L41 19.625L38.75 16.25ZM47.75 23C47.75 22.3672 47.5273 21.834 47.082 21.4004C46.6367 20.9668 46.1094 20.75 45.5 20.75H42.8633C42.6758 21.1953 42.4297 21.5703 42.125 21.875L39.875 24.125C39.125 24.875 38.375 25.25 37.625 25.25C37.0625 25.25 36.4883 25.0273 35.9023 24.582L34.1797 26.0938L38.75 47.75H45.5C46.1094 47.75 46.6367 47.5332 47.082 47.0996C47.5273 46.666 47.75 46.1328 47.75 45.5V23Z" fill="white"/>
<defs>
<linearGradient id="paint0_linear" x1="-10.5" y1="-11.5" x2="72.5" y2="85" gradientUnits="userSpaceOnUse">
<stop stop-color="#FF8B8B"/>
<stop offset="1" stop-color="#FDB58D"/>
</linearGradient>
</defs>
</svg>
