<svg width="64" height="64" viewBox="0 0 64 64" fill="none" xmlns="http://www.w3.org/2000/svg">
<rect width="64" height="64" rx="10" fill="url(#paint0_linear)"/>
<path d="M47.592 18.7778H47.5892C47.5828 18.5768 47.4994 18.3861 47.3563 18.2449C47.2131 18.1038 47.0211 18.0232 46.8201 18.0197V18.0183H45.2172L45.2167 46.8347L45.2172 46.8395C45.2172 47.2688 44.8733 47.6156 44.4458 47.6238V47.6261L20.1605 47.6252C19.975 47.6249 19.7956 47.5588 19.6542 47.4387C19.5128 47.3186 19.4185 47.1523 19.3882 46.9692V45.2509H42.0033V45.2494C42.0085 45.2494 42.0133 45.2509 42.018 45.2509C42.4522 45.2509 42.8033 44.9002 42.8033 44.4656L42.8023 44.4599L42.8033 14.7857C42.8033 14.3516 42.4522 14 42.018 14.0005L42.0037 14.0019V14H39.2578V30.6742C39.2581 30.7496 39.2355 30.8234 39.1931 30.8857C39.1507 30.948 39.0904 30.996 39.0202 31.0234C38.9499 31.0508 38.873 31.0562 38.7996 31.039C38.7262 31.0218 38.6597 30.9828 38.609 30.9271L35.9055 28.2236H35.8964C35.8663 28.1879 35.8289 28.1591 35.7866 28.1393C35.7444 28.1194 35.6983 28.1089 35.6517 28.1086C35.605 28.1089 35.5589 28.1194 35.5167 28.1393C35.4744 28.1591 35.437 28.1879 35.4069 28.2236H35.3979L32.6743 30.9471H32.67C32.6171 30.9975 32.5505 31.0312 32.4786 31.0441C32.4066 31.0569 32.3325 31.0482 32.2654 31.0192C32.1984 30.9901 32.1414 30.9419 32.1015 30.8807C32.0616 30.8194 32.0407 30.7478 32.0413 30.6747V14.0005H17.7852C17.3511 14.0005 17 14.3516 17 14.7857C17 14.7957 17.0029 14.8058 17.0029 14.8158V49.1852C17.0024 49.1947 17 49.2038 17 49.2133C17 49.2229 17.0024 49.2319 17.0029 49.2415V49.2777H17.0067C17.0221 49.4737 17.1108 49.6567 17.2551 49.7903C17.3994 49.9239 17.5886 49.9982 17.7852 49.9986V49.999L46.8063 50H46.8201V49.9986C47.0259 49.9953 47.2221 49.9113 47.3664 49.7647C47.5107 49.618 47.5916 49.4205 47.5915 49.2148L47.5911 49.21L47.592 18.7778Z" fill="white"/>
<defs>
<linearGradient id="paint0_linear" x1="-10.5" y1="-11.5" x2="72.5" y2="85" gradientUnits="userSpaceOnUse">
<stop stop-color="#FF8B8B"/>
<stop offset="1" stop-color="#FDB58D"/>
</linearGradient>
</defs>
</svg>
