<svg width="64" height="64" viewBox="0 0 64 64" fill="none" xmlns="http://www.w3.org/2000/svg">
<rect width="64" height="64" rx="10" fill="url(#paint0_linear)"/>
<path d="M47.5222 34.1819C49.6772 30.0768 45.297 27.23 39.5702 25.8339C40.001 24.8546 40.1259 23.5726 38.9109 22.3486C37.3528 20.7821 38.3884 18.5 38.3884 18.5C38.3884 18.5 35.118 21.5167 37.1829 23.5968C37.9445 24.3635 38.3411 25.0368 38.5307 25.5999C36.9497 25.274 35.3489 25.0534 33.7387 24.9395C34.2197 23.6322 34.2664 21.9903 32.751 20.4181C30.6765 18.2632 32.058 15.125 32.058 15.125C32.058 15.125 27.6969 19.2729 30.4504 22.1326C31.4555 23.1755 31.9849 24.0935 32.2414 24.863C30.5347 24.8118 28.8922 24.8866 27.4331 25.0908C27.6069 24.2499 27.4618 23.2829 26.5342 22.3492C24.9761 20.7826 26.0122 18.5 26.0122 18.5C26.0122 18.5 22.7413 21.5167 24.8068 23.5968C25.4537 24.2482 25.8328 24.8298 26.0505 25.3366C25.8041 25.3906 25.565 25.4491 25.335 25.5127C18.2239 24.8472 15.1222 26.3165 16.5392 29.1988C14.0664 31.6715 14.9957 34.4936 18.09 36.653C19.7044 43.3023 20.12 48.875 32.279 48.875C43.1285 48.875 44.6276 44.4369 45.9714 38.7568C50.0034 37.9541 49.1445 36.0213 47.5222 34.1819ZM46.517 33.5176C45.1665 36.3976 39.3052 38.5655 32.279 38.5655C25.2534 38.5655 19.3922 36.3976 18.041 33.5176C18.0124 33.4321 17.9848 33.3433 17.9572 33.2566C18.6007 31.6243 20.6921 30.2079 23.6295 29.2595C22.9393 29.9266 22.7959 30.9228 24.6122 31.2721C25.1319 31.3722 26.559 31.0258 25.9352 29.255C25.848 29.0075 25.7057 28.8416 25.5307 28.7414C27.549 28.2796 29.84 28.0136 32.279 28.0136C32.5524 28.0136 32.8207 28.0231 33.0902 28.0293C31.6828 28.5288 30.5347 30.0678 33.4085 30.5217C34.043 30.6219 35.7851 30.2754 35.0235 28.5046C34.9569 28.3468 34.8503 28.2091 34.7141 28.1053C37.4068 28.3033 39.8464 28.8219 41.8185 29.5694C40.0843 29.4727 38.1605 30.5414 41.2414 32.0461C41.9023 32.369 43.9104 32.6654 43.6342 30.7102C43.6143 30.5689 43.5644 30.4335 43.488 30.3131C45.0647 31.1439 46.1644 32.1513 46.6003 33.2566L46.517 33.5176Z" fill="white"/>
<path d="M28.5331 34.723C30.3517 34.723 31.5644 33.0789 32.5145 32.4354C33.842 31.5354 37.1799 31.1844 34.2402 31.1135C31.4519 31.0465 28.0094 33.31 25.7088 33.1542C21.8995 32.8955 25.801 34.723 28.5331 34.723Z" fill="white"/>
<path d="M32.4631 38.0823C33.1055 38.2061 34.8712 37.7774 34.0989 35.5876C33.2264 33.1098 27.9451 37.2127 32.4631 38.0823Z" fill="white"/>
<path d="M22.4638 32.6626C21.8501 31.7964 20.9602 30.6978 20.5918 31.2699C20.0883 32.0523 19.9297 33.6268 20.2953 33.6965C23.1618 34.2461 22.961 33.3641 22.4638 32.6626Z" fill="white"/>
<path d="M39.128 33.0136C39.6449 32.3735 38.6127 30.8328 37.9501 31.1023C36.9129 31.5241 36.3149 31.2384 35.8593 31.8785C34.7922 33.3776 38.4254 33.8827 39.128 33.0136Z" fill="white"/>
<path d="M38.8051 34.8479C38.0614 34.52 38.2369 35.6186 37.1384 34.7371C36.352 34.106 34.66 35.6979 35.776 36.779C37.018 37.9822 37.3488 36.8386 37.8708 36.9348C38.9316 37.13 40.7558 35.7086 38.8051 34.8479Z" fill="white"/>
<path d="M26.4404 35.2237C26.0528 34.8423 25.5331 35.3024 25.2394 35.8638C24.9486 35.7209 24.7118 35.6877 24.7118 35.6877C24.4896 35.0544 23.8287 34.6201 23.8287 34.6201C23.8287 34.6201 23.8889 35.2788 23.9761 35.6C23.2459 35.3407 23.2234 34.0357 23.2234 34.0357C23.2234 34.0357 22.7335 34.3287 22.7779 34.8266C21.9741 34.178 21.2896 34.4812 21.2896 34.4812C21.2896 34.4812 22.3094 35.0549 22.45 35.4419C21.8774 35.4864 21.5432 35.6844 21.3486 36.145C21.3492 36.149 22.4804 35.6067 23.3174 35.9982C22.9872 36.2682 23.1514 36.9427 23.1514 36.9427C23.9305 36.1169 24.5526 36.2052 25.0504 36.3532C24.9902 36.6057 24.9942 36.8364 25.1011 36.9764C25.9645 38.1115 28.9722 37.8562 29.7799 37.0169C30.7581 36.0016 28.0401 36.7981 26.4404 35.2237Z" fill="white"/>
<path d="M28.5649 30.9481C28.309 31.4622 28.3073 31.8504 28.6032 32.2542C28.6071 32.2554 28.7224 31.0066 29.488 30.4891C29.5504 30.911 30.213 31.1157 30.213 31.1157C29.6832 29.2392 31.23 29.1414 31.2227 28.468C30.4026 28.5372 29.9369 29.1335 29.9369 29.1335C29.2793 28.999 28.5666 29.3427 28.5666 29.3427C28.5666 29.3427 29.1634 29.629 29.4835 29.7196C28.8861 30.2129 27.7544 29.5621 27.7544 29.5621C27.7544 29.5621 27.7544 30.1336 28.2044 30.3502C27.2352 30.7074 27.144 31.4499 27.144 31.4499C27.144 31.4499 28.1599 30.8699 28.5649 30.9481Z" fill="white"/>
<path d="M42.9375 33.5109C43.1703 33.0688 42.8306 32.6092 42.8306 32.6092C42.8306 32.6092 42.308 33.8056 41.5346 33.7646C41.7382 33.5013 42.0476 32.9163 42.0476 32.9163C42.0476 32.9163 41.2702 33.0643 40.8213 33.5632C40.8213 33.5632 40.0923 33.3613 39.3926 33.7933C39.7875 34.3389 41.0891 33.4968 41.7793 35.3204C41.7793 35.3204 42.1899 34.7619 41.9891 34.3856C42.9127 34.3456 43.7486 35.2805 43.7514 35.2771C43.748 34.7765 43.5163 34.466 43.0038 34.205C43.2828 33.9018 44.445 33.764 44.445 33.764C44.445 33.764 43.9297 33.2212 42.9375 33.5109Z" fill="white"/>
<defs>
<linearGradient id="paint0_linear" x1="-10.5" y1="-11.5" x2="72.5" y2="85" gradientUnits="userSpaceOnUse">
<stop stop-color="#FF8B8B"/>
<stop offset="1" stop-color="#FDB58D"/>
</linearGradient>
</defs>
</svg>
