<svg width="64" height="64" viewBox="0 0 64 64" fill="none" xmlns="http://www.w3.org/2000/svg">
<rect width="64" height="64" rx="10" fill="url(#paint0_linear)"/>
<path d="M43.3483 23.9802C42.9351 24.4023 42.4221 24.7178 41.854 24.9233C42.0808 26.184 42.5074 27.3628 43.1249 28.3901H49.0132V23.9825C48.2925 24.7167 47.2933 25.1747 46.1841 25.1747C45.0738 25.1736 44.0679 24.7156 43.3483 23.9802Z" fill="white"/>
<path d="M14.9941 30.3963V46.0507C14.9941 46.7165 15.5341 47.2553 16.201 47.2553H22.5351C23.1627 47.2553 23.6858 46.7748 23.7375 46.1529C23.816 45.2121 23.8598 44.2443 23.8598 43.2542C23.8598 38.0832 22.7809 33.4589 21.088 30.3963H14.9941Z" fill="white"/>
<path d="M20.6591 23.9802C19.9372 24.7167 18.9325 25.1736 17.8233 25.1736C16.7163 25.1736 15.7149 24.7156 14.9941 23.9813V28.3901H20.8848C21.5 27.3628 21.9255 26.1829 22.1523 24.9233C21.5864 24.7178 21.0723 24.4023 20.6591 23.9802Z" fill="white"/>
<path d="M47.8132 16.7435H16.1922C15.5265 16.7435 14.9854 17.2835 14.9854 17.9503V21.2038C14.9854 22.7711 16.2551 24.0397 17.8212 24.0397C19.3873 24.0397 20.6582 22.7699 20.6582 21.2027C20.6582 22.7699 21.9279 24.0385 23.494 24.0385C25.0601 24.0385 26.3299 22.7688 26.3299 21.2027C26.3299 22.7699 27.5996 24.0385 29.1657 24.0385C30.7319 24.0385 32.0016 22.7688 32.0016 21.2027C32.0016 22.7699 33.2702 24.0385 34.8374 24.0385C36.4047 24.0385 37.6733 22.7688 37.6733 21.2027C37.6733 22.7699 38.943 24.0385 40.508 24.0385C42.0753 24.0385 43.3428 22.7688 43.3428 21.2027C43.3428 22.7699 44.6125 24.0385 46.1786 24.0385C47.7447 24.0385 49.0122 22.7688 49.0122 21.2027V17.9503C49.0212 17.2835 48.4812 16.7435 47.8132 16.7435Z" fill="white"/>
<path d="M40.1475 43.2542C40.1475 44.2443 40.1912 45.211 40.2698 46.1529C40.3204 46.7782 40.8446 47.2553 41.47 47.2553H47.8063C48.4731 47.2553 49.0109 46.7176 49.0109 46.0507V30.3963H42.9182C41.2275 33.4611 40.1475 38.0832 40.1475 43.2542Z" fill="white"/>
<defs>
<linearGradient id="paint0_linear" x1="-10.5" y1="-11.5" x2="72.5" y2="85" gradientUnits="userSpaceOnUse">
<stop stop-color="#FF8B8B"/>
<stop offset="1" stop-color="#FDB58D"/>
</linearGradient>
</defs>
</svg>
