<svg width="64" height="64" viewBox="0 0 64 64" fill="none" xmlns="http://www.w3.org/2000/svg">
<rect width="64" height="64" rx="10" fill="url(#paint0_linear)"/>
<path d="M33.8 46.256C37.04 45.86 39.83 44.51 42.17 42.17C44.51 39.83 45.86 37.04 46.256 33.8H40.856C40.46 35.6 39.632 37.112 38.372 38.372C37.112 39.632 35.6 40.46 33.8 40.856V46.256ZM28.4 24.8H35.6L41 30.2H46.256C45.806 26.69 44.222 23.684 41.486 21.2C38.768 18.788 35.6 17.6 32 17.6C28.4 17.6 25.232 18.788 22.514 21.2C19.778 23.684 18.194 26.69 17.744 30.2H23L28.4 24.8ZM30.2 46.256V40.856C28.4 40.46 26.888 39.632 25.628 38.372C24.368 37.112 23.54 35.6 23.144 33.8H17.744C18.14 36.986 19.49 39.74 21.83 42.08C24.17 44.42 26.96 45.806 30.2 46.256ZM32 14C36.95 14 41.18 15.8 44.69 19.31C48.2 22.82 50 27.05 50 32C50 36.95 48.2 41.18 44.69 44.69C41.18 48.2 36.95 50 32 50C27.05 50 22.82 48.2 19.31 44.69C15.8 41.18 14 36.95 14 32C14 27.05 15.8 22.82 19.31 19.31C22.82 15.8 27.05 14 32 14Z" fill="white"/>
<defs>
<linearGradient id="paint0_linear" x1="-10.5" y1="-11.5" x2="72.5" y2="85" gradientUnits="userSpaceOnUse">
<stop stop-color="#FF8B8B"/>
<stop offset="1" stop-color="#FDB58D"/>
</linearGradient>
</defs>
</svg>
