<svg width="64" height="64" viewBox="0 0 64 64" fill="none" xmlns="http://www.w3.org/2000/svg">
<rect width="64" height="64" rx="10" fill="url(#paint0_linear)"/>
<path d="M32 28.4C31.2909 28.4 30.5887 28.5397 29.9335 28.8111C29.2784 29.0824 28.6831 29.4802 28.1816 29.9816C27.6802 30.4831 27.2824 31.0784 27.011 31.7335C26.7397 32.3887 26.6 33.0909 26.6 33.8C26.6 34.5091 26.7397 35.2113 27.011 35.8665C27.2824 36.5217 27.6802 37.1169 28.1816 37.6184C28.6831 38.1198 29.2784 38.5176 29.9335 38.789C30.5887 39.0603 31.2909 39.2 32 39.2C33.4322 39.2 34.8057 38.6311 35.8184 37.6184C36.8311 36.6057 37.4 35.2322 37.4 33.8C37.4 32.3678 36.8311 30.9943 35.8184 29.9816C34.8057 28.9689 33.4322 28.4 32 28.4ZM46.4 23H42.08C41.7691 22.9858 41.4691 22.8812 41.2168 22.6989C40.9645 22.5167 40.7709 22.2647 40.6598 21.974L39.542 18.6242C39.4301 18.3338 39.236 18.0823 38.9835 17.9004C38.7309 17.7185 38.4309 17.6142 38.12 17.6H25.88C25.286 17.6 24.6452 18.0608 24.4598 18.6224L23.3402 21.974C23.2289 22.2646 23.0352 22.5164 22.783 22.6986C22.5307 22.8809 22.2308 22.9856 21.92 23H17.6C15.62 23 14 24.62 14 26.6V42.8C14 44.78 15.62 46.4 17.6 46.4H46.4C48.38 46.4 50 44.78 50 42.8V26.6C50 24.62 48.38 23 46.4 23ZM32 42.8C29.6131 42.8 27.3239 41.8518 25.636 40.164C23.9482 38.4761 23 36.187 23 33.8C23 31.4131 23.9482 29.1239 25.636 27.436C27.3239 25.7482 29.6131 24.8 32 24.8C34.3869 24.8 36.6761 25.7482 38.364 27.436C40.0518 29.1239 41 31.4131 41 33.8C41 36.187 40.0518 38.4761 38.364 40.164C36.6761 41.8518 34.3869 42.8 32 42.8ZM45.5 28.76C45.1658 28.76 44.8453 28.6273 44.609 28.391C44.3727 28.1547 44.24 27.8342 44.24 27.5C44.24 27.1658 44.3727 26.8453 44.609 26.6091C44.8453 26.3728 45.1658 26.24 45.5 26.24C45.8342 26.24 46.1547 26.3728 46.391 26.6091C46.6272 26.8453 46.76 27.1658 46.76 27.5C46.76 27.8342 46.6272 28.1547 46.391 28.391C46.1547 28.6273 45.8342 28.76 45.5 28.76Z" fill="white"/>
<defs>
<linearGradient id="paint0_linear" x1="-10.5" y1="-11.5" x2="72.5" y2="85" gradientUnits="userSpaceOnUse">
<stop stop-color="#FF8B8B"/>
<stop offset="1" stop-color="#FDB58D"/>
</linearGradient>
</defs>
</svg>
