<svg width="64" height="64" viewBox="0 0 64 64" fill="none" xmlns="http://www.w3.org/2000/svg">
<rect width="64" height="64" rx="10" fill="url(#paint0_linear)"/>
<path d="M39.0423 18.7981H34.0376C33.1333 18.801 33.1671 20.1488 34.0376 20.1409H39.0423V20.8299H34.0376C33.1383 20.822 33.1714 22.1691 34.0376 22.1727H39.0423V22.8769H34.0376C33.1383 22.8769 33.1714 24.2233 34.0376 24.2197H39.0423V24.8907H34.0376C33.157 24.8972 33.1714 26.245 34.0376 26.2494H39.0423V26.9218H34.0376C33.157 26.919 33.1534 28.2646 34.0376 28.2646H39.0423V28.9357H34.0376C33.157 28.9386 33.1534 30.2857 34.0376 30.2792H39.0423V30.9668H34.0376C33.157 30.9589 33.1534 32.3046 34.0376 32.3096H39.0423V32.9792H34.0376C33.157 32.9785 33.1714 34.327 34.0376 34.3227H39.0423V47.3972C39.0452 49.3894 42.0714 49.3534 42.08 47.3972V16.8008C42.0714 15.8907 41.324 14.7402 40.0942 14.7366H34.0376C33.1333 14.7373 33.1671 16.0851 34.0376 16.0794L39.0423 16.0959V16.7655H34.0376C33.1347 16.7612 33.1686 18.1083 34.0376 18.109H39.0423V18.7981ZM33.6934 41.9778C33.6906 39.6522 31.28 37.1509 28.4 38.7709V29.876L26.5374 15.206C26.4985 14.8179 26.1694 14.7265 25.9484 14.72C25.7202 14.7265 25.263 14.8179 25.2133 15.206L23.36 29.876V38.7709C20.48 37.1509 18.1472 39.668 18.1465 41.9598C18.1472 43.9988 19.7168 45.6735 21.8408 45.6685C23.9806 45.6735 25.52 43.7965 25.52 41.9598V32.72H26.24V41.9598C26.24 44.0161 27.8326 45.5382 29.6024 45.6346C29.5729 46.7622 29.9408 48.3706 30.6334 49.0086C31.4456 49.7574 32.4126 48.7998 32.0158 48.02C31.6328 47.2942 31.257 46.8644 31.5622 45.2797C32.8381 44.6893 33.6906 43.4466 33.6934 41.9778ZM21.9229 43.8073C21.4374 43.8073 20.9718 43.6144 20.6285 43.2711C20.2852 42.9278 20.0923 42.4622 20.0923 41.9767C20.0923 41.4912 20.2852 41.0256 20.6285 40.6823C20.9718 40.3389 21.4374 40.1461 21.9229 40.1461C22.9208 40.1518 23.7337 40.9705 23.7409 41.9778C23.7388 42.4604 23.547 42.9228 23.2068 43.2651C22.8667 43.6074 22.4055 43.8022 21.9229 43.8073ZM28.094 41.9778C28.0957 41.4947 28.2874 41.0318 28.6278 40.689C28.9681 40.3462 29.4297 40.1512 29.9127 40.1461C30.3959 40.1504 30.8579 40.3453 31.1983 40.6882C31.5386 41.0312 31.73 41.4946 31.7307 41.9778C31.73 42.4608 31.5386 42.9239 31.1981 43.2665C30.8577 43.6092 30.3957 43.8035 29.9127 43.8073C29.4298 43.8029 28.9681 43.6084 28.6277 43.266C28.2873 42.9235 28.0955 42.4607 28.094 41.9778Z" fill="white"/>
<defs>
<linearGradient id="paint0_linear" x1="-10.5" y1="-11.5" x2="72.5" y2="85" gradientUnits="userSpaceOnUse">
<stop stop-color="#FF8B8B"/>
<stop offset="1" stop-color="#FDB58D"/>
</linearGradient>
</defs>
</svg>
