<svg width="64" height="64" viewBox="0 0 64 64" fill="none" xmlns="http://www.w3.org/2000/svg">
<rect width="64" height="64" rx="10" fill="url(#paint0_linear)"/>
<path d="M41.1704 33.2738C40.1807 28.5514 37.828 24.2363 32.2489 24.018C31.7426 23.1847 31.4273 22.5925 31.3426 22.4296C29.917 19.1452 26.5864 16.9443 23.0296 16.9443C18.0506 16.9443 14 20.9949 14 25.9733C14 27.3226 14.3075 28.599 14.8418 29.749C16.2706 32.8216 19.3765 34.9612 22.9795 34.9612H29.1508C30.2304 34.9612 31.1054 34.0869 31.1054 33.0066C31.1054 31.927 30.2304 31.052 29.1508 31.052H22.9808C21.6816 31.052 20.4991 30.5562 19.6013 29.749C18.566 28.8186 17.9099 27.4731 17.9099 25.9733C17.9099 23.1502 20.2065 20.8535 23.0303 20.8535C25.0637 20.8535 26.9701 22.1286 27.7741 24.0252L27.8282 24.1412C27.8588 24.2024 27.9644 24.409 28.1338 24.7178C25.9218 25.6795 24.4682 27.5259 23.5216 29.7483H29.6219C31.1608 29.749 32.4085 31.1139 32.4085 32.7975V33.2158C32.4085 34.8987 31.1608 36.2643 29.6212 36.2643H21.9891C21.7311 38.7076 21.7285 41.0512 21.7285 42.7797C21.7285 43.7316 22.4055 44.5063 23.5033 45.1109C23.5007 45.1506 23.4916 45.1871 23.4916 45.2282C23.4916 46.238 24.3099 47.0564 25.3191 47.0564C25.9583 47.0564 26.5193 46.7267 26.8457 46.2283C30.0285 46.8661 34.0862 46.8394 37.1888 46.1442C37.5055 46.6876 38.088 47.0551 38.761 47.0551C39.7702 47.0551 40.5886 46.2367 40.5886 45.2262C40.5886 45.0985 40.5749 44.9728 40.5488 44.8522C41.3906 44.2906 41.8916 43.5987 41.8916 42.779C41.8916 41.3958 41.8903 39.6197 41.7581 37.7159C42.8351 38.0352 43.9583 38.2222 45.1265 38.2222C45.2288 38.2222 45.335 38.2131 45.4392 38.2092V34.2967C43.9466 34.3566 42.508 33.9507 41.1704 33.2738ZM32.0658 43.1015C30.824 43.1015 29.8174 42.0949 29.8174 40.8531C29.8174 39.6119 30.824 38.6046 32.0658 38.6046C33.3076 38.6046 34.3143 39.6119 34.3143 40.8531C34.3143 42.0949 33.3076 43.1015 32.0658 43.1015Z" fill="white"/>
<path d="M49.1144 31.7036H46.9767C46.4881 31.7036 46.0913 32.1003 46.0913 32.589V41.2427C46.0913 41.7314 46.4881 42.1275 46.9767 42.1275H49.1144C49.6031 42.1275 49.9999 41.7314 49.9999 41.2427V32.589C49.9999 32.1003 49.6031 31.7036 49.1144 31.7036Z" fill="white"/>
<defs>
<linearGradient id="paint0_linear" x1="-10.5" y1="-11.5" x2="72.5" y2="85" gradientUnits="userSpaceOnUse">
<stop stop-color="#FF8B8B"/>
<stop offset="1" stop-color="#FDB58D"/>
</linearGradient>
</defs>
</svg>
