<svg width="64" height="64" viewBox="0 0 64 64" fill="none" xmlns="http://www.w3.org/2000/svg">
<rect width="64" height="64" rx="10" fill="url(#paint0_linear)"/>
<path d="M41.208 30.191H50C49.7147 27.3545 48.7599 24.6264 47.2141 22.2312C45.6485 22.9797 44.2858 24.0935 43.2405 25.4788C42.1953 26.864 41.4983 28.4801 41.208 30.191ZM22.792 30.191C22.5017 28.4801 21.8047 26.864 20.7595 25.4788C19.7142 24.0935 18.3515 22.9797 16.7859 22.2312C15.2401 24.6264 14.2853 27.3545 14 30.191H22.792ZM37.5538 30.191C37.8369 27.9312 38.6497 25.7702 39.926 23.884C41.2023 21.9979 42.906 20.4398 44.8985 19.3367C41.9421 16.3126 38.0169 14.4236 33.809 14V30.191H37.5538ZM26.4462 30.191H30.191V14C25.982 14.4197 22.0555 16.3092 19.1015 19.3367C21.094 20.4398 22.7977 21.9979 24.074 23.884C25.3503 25.7702 26.1631 27.9312 26.4462 30.191ZM37.5538 33.809H33.809V50C38.018 49.5803 41.9445 47.6908 44.8985 44.6633C42.906 43.5602 41.2023 42.0021 39.926 40.1159C38.6497 38.2298 37.8369 36.0688 37.5538 33.809ZM16.7859 41.7688C18.3477 41.0151 19.7073 39.8998 20.7518 38.5155C21.7964 37.1312 22.4958 35.5177 22.792 33.809H14C14.2894 36.7216 15.2844 39.4352 16.7859 41.7688ZM41.208 33.809C41.4983 35.5199 42.1953 37.136 43.2405 38.5212C44.2858 39.9065 45.6485 41.0203 47.2141 41.7688C48.7599 39.3736 49.7147 36.6455 50 33.809H41.208ZM26.4462 33.809C26.1631 36.0688 25.3503 38.2298 24.074 40.1159C22.7977 42.0021 21.094 43.5602 19.1015 44.6633C22.0579 47.6874 25.9831 49.5764 30.191 50V33.809H26.4462Z" fill="white"/>
<defs>
<linearGradient id="paint0_linear" x1="-10.5" y1="-11.5" x2="72.5" y2="85" gradientUnits="userSpaceOnUse">
<stop stop-color="#FF8B8B"/>
<stop offset="1" stop-color="#FDB58D"/>
</linearGradient>
</defs>
</svg>
