<svg width="64" height="64" viewBox="0 0 64 64" fill="none" xmlns="http://www.w3.org/2000/svg">
<rect width="64" height="64" rx="10" fill="url(#paint0_linear)"/>
<g clip-path="url(#clip0)">
<path d="M49.3414 16.7422L47.258 14.6589C47.0491 14.4499 46.801 14.2841 46.528 14.171C46.255 14.0579 45.9623 13.9997 45.6668 13.9997C45.3713 13.9997 45.0787 14.0579 44.8057 14.171C44.5326 14.2841 44.2846 14.4499 44.0756 14.6589L40.8216 17.9164C40.5488 18.1885 40.3434 18.5205 40.2218 18.886L39.3668 21.4532L34.0048 26.8152C33.1498 26.1992 32.2118 25.7085 31.1853 25.4694C28.8333 24.9224 26.4743 25.4075 24.8656 27.0163C24.2093 27.6752 23.7212 28.4824 23.4424 29.3696C23.0206 30.6746 21.8105 31.6682 20.4788 31.7926C18.8124 31.9522 17.2634 32.5977 16.0765 33.7923C12.8674 36.9922 13.4447 42.7578 17.3456 46.6567C21.2466 50.5555 27.008 51.125 30.2114 47.9272C31.4067 46.7403 32.0508 45.1921 32.2118 43.5179C32.3356 42.1925 33.3291 40.9775 34.6327 40.555C35.5201 40.2757 36.3274 39.7874 36.9867 39.1311C38.5948 37.5224 39.0778 35.1683 38.5336 32.8206C38.2953 31.7912 37.8045 30.8518 37.1864 29.994L42.5471 24.6334L45.1121 23.7784C45.4776 23.6568 45.8096 23.4514 46.0817 23.1786L49.3392 19.9217C49.7607 19.5002 49.9977 18.9286 49.9981 18.3324C49.9985 17.7363 49.7623 17.1644 49.3414 16.7422ZM28.6252 38.75C27.9577 38.75 27.3051 38.5521 26.7501 38.1812C26.1951 37.8104 25.7625 37.2833 25.5071 36.6666C25.2516 36.0499 25.1848 35.3713 25.315 34.7166C25.4453 34.0619 25.7667 33.4605 26.2387 32.9885C26.7107 32.5165 27.3121 32.1951 27.9667 32.0649C28.6214 31.9347 29.3 32.0015 29.9167 32.2569C30.5334 32.5124 31.0605 32.945 31.4314 33.5C31.8022 34.055 32.0002 34.7075 32.0002 35.375C32.0002 36.2701 31.6446 37.1286 31.0117 37.7615C30.3787 38.3945 29.5203 38.75 28.6252 38.75Z" fill="white"/>
</g>
<defs>
<linearGradient id="paint0_linear" x1="-10.5" y1="-11.5" x2="72.5" y2="85" gradientUnits="userSpaceOnUse">
<stop stop-color="#FF8B8B"/>
<stop offset="1" stop-color="#FDB58D"/>
</linearGradient>
<clipPath id="clip0">
<rect width="36" height="36" fill="white" transform="translate(14 14)"/>
</clipPath>
</defs>
</svg>
