<svg width="48" height="48" viewBox="0 0 48 48" fill="none" xmlns="http://www.w3.org/2000/svg">
<path d="M23.9997 14.386C18.6794 14.386 14.3857 18.6797 14.3857 24C14.3857 29.3203 18.6794 33.6141 23.9997 33.6141C29.32 33.6141 33.6138 29.3203 33.6138 24C33.6138 18.6797 29.32 14.386 23.9997 14.386ZM23.9997 30.2485C20.5591 30.2485 17.7513 27.4407 17.7513 24C17.7513 20.5594 20.5591 17.7516 23.9997 17.7516C27.4404 17.7516 30.2482 20.5594 30.2482 24C30.2482 27.4407 27.4404 30.2485 23.9997 30.2485ZM34.0075 11.7516C32.7654 11.7516 31.7622 12.7547 31.7622 13.9969C31.7622 15.2391 32.7654 16.2422 34.0075 16.2422C35.2497 16.2422 36.2529 15.2438 36.2529 13.9969C36.2532 13.7019 36.1954 13.4098 36.0827 13.1372C35.97 12.8646 35.8046 12.617 35.596 12.4084C35.3875 12.1998 35.1398 12.0345 34.8672 11.9218C34.5947 11.809 34.3025 11.7512 34.0075 11.7516ZM42.7404 24C42.7404 21.4125 42.7638 18.8485 42.6185 16.2657C42.4732 13.2657 41.7888 10.6032 39.595 8.4094C37.3966 6.21096 34.7388 5.53128 31.7388 5.38596C29.1513 5.24065 26.5872 5.26409 24.0044 5.26409C21.4169 5.26409 18.8529 5.24065 16.27 5.38596C13.27 5.53128 10.6075 6.21565 8.4138 8.4094C6.21536 10.6078 5.53567 13.2657 5.39036 16.2657C5.24505 18.8532 5.26848 21.4172 5.26848 24C5.26848 26.5828 5.24505 29.1516 5.39036 31.7344C5.53567 34.7344 6.22005 37.3969 8.4138 39.5907C10.6122 41.7891 13.27 42.4688 16.27 42.6141C18.8575 42.7594 21.4216 42.736 24.0044 42.736C26.5919 42.736 29.156 42.7594 31.7388 42.6141C34.7388 42.4688 37.4013 41.7844 39.595 39.5907C41.7935 37.3922 42.4732 34.7344 42.6185 31.7344C42.7685 29.1516 42.7404 26.5875 42.7404 24ZM38.6154 35.0532C38.2732 35.9063 37.8607 36.5438 37.1997 37.2C36.5388 37.861 35.906 38.2735 35.0529 38.6157C32.5872 39.5953 26.7325 39.375 23.9997 39.375C21.2669 39.375 15.4075 39.5953 12.9419 38.6203C12.0888 38.2782 11.4513 37.8657 10.795 37.2047C10.1341 36.5438 9.72161 35.911 9.37942 35.0578C8.40442 32.5875 8.62473 26.7328 8.62473 24C8.62473 21.2672 8.40442 15.4078 9.37942 12.9422C9.72161 12.0891 10.1341 11.4516 10.795 10.7953C11.456 10.1391 12.0888 9.7219 12.9419 9.37971C15.4075 8.40471 21.2669 8.62503 23.9997 8.62503C26.7325 8.62503 32.5919 8.40471 35.0575 9.37971C35.9107 9.7219 36.5482 10.1344 37.2044 10.7953C37.8654 11.4563 38.2779 12.0891 38.62 12.9422C39.595 15.4078 39.3747 21.2672 39.3747 24C39.3747 26.7328 39.595 32.5875 38.6154 35.0532Z" fill="black"/>
</svg>
