<svg width="52" height="52" viewBox="0 0 52 52" fill="none" xmlns="http://www.w3.org/2000/svg">
<g filter="url(#filter0_d)">
<path d="M16.6952 17.4L18.5936 4.8H8.72002L4.59442 15.6C4.46722 15.984 4.40002 16.3824 4.40002 16.8C4.40002 19.4496 7.16002 21.6 10.5704 21.6C13.7144 21.6 16.3136 19.7664 16.6952 17.4ZM26 21.6C29.408 21.6 32.1704 19.4496 32.1704 16.8C32.1704 16.7016 32.1632 16.6032 32.1584 16.5096L30.9368 4.8H21.0632L19.8392 16.5C19.8344 16.5984 19.8296 16.6968 19.8296 16.8C19.8296 19.4496 22.592 21.6 26 21.6ZM38 24.1104V33.6H14V24.1248C12.9488 24.504 11.792 24.72 10.5704 24.72C10.1024 24.72 9.64882 24.6648 9.20002 24.6024V39.84C9.20002 41.688 10.7096 43.2 12.5552 43.2H39.44C41.288 43.2 42.8 41.6856 42.8 39.84V24.6048C42.3463 24.6745 41.8885 24.7137 41.4296 24.7224C40.2594 24.7212 39.0985 24.5141 38 24.1104ZM47.408 15.6L43.2776 4.8H33.4064L35.3024 17.3808C35.672 19.7568 38.2712 21.6 41.4296 21.6C44.8376 21.6 47.6 19.4496 47.6 16.8C47.6 16.3824 47.5328 15.984 47.408 15.6Z" fill="white"/>
</g>
<defs>
<filter id="filter0_d" x="-2" y="0" width="56" height="56" filterUnits="userSpaceOnUse" color-interpolation-filters="sRGB">
<feFlood flood-opacity="0" result="BackgroundImageFix"/>
<feColorMatrix in="SourceAlpha" type="matrix" values="0 0 0 0 0 0 0 0 0 0 0 0 0 0 0 0 0 0 127 0"/>
<feOffset dy="4"/>
<feGaussianBlur stdDeviation="2"/>
<feColorMatrix type="matrix" values="0 0 0 0 0 0 0 0 0 0 0 0 0 0 0 0 0 0 0.25 0"/>
<feBlend mode="normal" in2="BackgroundImageFix" result="effect1_dropShadow"/>
<feBlend mode="normal" in="SourceGraphic" in2="effect1_dropShadow" result="shape"/>
</filter>
</defs>
</svg>
