<svg width="158" height="34" viewBox="0 0 158 34" fill="none" xmlns="http://www.w3.org/2000/svg">
<path d="M14.84 30.192C16.136 29.856 16.88 29.04 17.072 27.744C17.264 26.448 16.88 25.368 15.92 24.504C15.008 23.64 13.544 22.656 11.528 21.552C9.512 20.4 7.712 19.392 6.128 18.528C4.544 17.664 3.128 16.488 1.88 15C0.632 13.464 0.00800003 11.808 0.00800003 10.032C0.00800003 8.256 0.512 6.672 1.52 5.28C2.528 3.84 3.896 2.76 5.624 2.04C7.4 1.272 9.392 0.887999 11.6 0.887999C13.616 0.887999 15.584 1.296 17.504 2.112C18.56 2.544 19.376 2.712 19.952 2.616C20.576 2.472 21.128 2.016 21.608 1.248C21.752 1.056 21.968 0.959998 22.256 0.959998H22.472C22.664 0.959998 22.832 1.032 22.976 1.176C23.12 1.32 23.192 1.488 23.192 1.68V10.536C23.192 11.016 22.952 11.256 22.472 11.256H22.4C22.016 11.256 21.776 11.04 21.68 10.608C21.536 9.36 20.96 8.184 19.952 7.08C18.944 5.928 17.792 5.064 16.496 4.488C15.2 3.864 13.88 3.48 12.536 3.336C11.192 3.192 10.088 3.456 9.224 4.128C8.552 4.608 8.216 5.328 8.216 6.288C8.216 7.248 9.272 8.4 11.384 9.744C13.496 11.088 15.896 12.528 18.584 14.064C21.272 15.6 23.048 16.896 23.912 17.952C25.16 19.44 25.784 21.096 25.784 22.92C25.784 24.072 25.544 25.2 25.064 26.304C24.632 27.408 23.96 28.44 23.048 29.4C22.136 30.312 21.056 31.056 19.808 31.632C16.832 32.928 10.856 33.336 1.88 32.856C1.688 32.856 1.52 32.784 1.376 32.64C1.232 32.496 1.16 32.328 1.16 32.136V24.504C1.16 24.264 1.232 24.072 1.376 23.928C1.52 23.784 1.712 23.712 1.952 23.712H2.312C2.6 23.712 2.816 23.832 2.96 24.072C4.064 25.896 5.36 27.312 6.848 28.32C7.952 29.088 9.272 29.664 10.808 30.048C12.392 30.432 13.736 30.48 14.84 30.192ZM54.7798 25.656C53.7238 27.432 52.1638 28.968 50.0998 30.264C48.0838 31.512 45.9478 32.376 43.6918 32.856C41.4358 33.288 39.1318 33.12 36.7798 32.352C34.4278 31.536 32.5078 30.096 31.0198 28.032C29.3878 25.824 28.3798 23.28 27.9958 20.4C27.6598 17.472 27.8758 14.712 28.6438 12.12C29.4118 9.48 30.7318 7.104 32.6038 4.992C34.5238 2.88 36.8038 1.512 39.4438 0.887999C40.8358 0.455999 42.3478 0.335999 43.9798 0.527997C45.6598 0.719998 47.2198 1.08 48.6598 1.608C50.0998 2.136 51.2758 3.048 52.1878 4.344C53.1478 5.64 53.6038 7.176 53.5558 8.952C53.5078 11.016 52.8118 12.72 51.4678 14.064C50.1238 15.408 48.5398 16.272 46.7158 16.656C44.8918 16.992 43.0918 17.112 41.3158 17.016C39.5398 16.872 38.1478 16.512 37.1398 15.936C37.4758 19.152 38.3398 21.936 39.7318 24.288C41.1238 26.592 42.9478 27.936 45.2038 28.32C48.2278 28.752 50.9398 27.528 53.3398 24.648C53.5798 24.312 53.8918 24.264 54.2758 24.504L54.5638 24.648C54.9958 24.888 55.0678 25.224 54.7798 25.656ZM42.1078 2.616C40.3798 2.952 39.0598 4.224 38.1478 6.432C37.2838 8.64 36.8998 11.232 36.9958 14.208C41.2198 14.64 44.1238 13.392 45.7078 10.464C46.8118 8.448 46.9078 6.504 45.9958 4.632C45.1798 3 43.8838 2.328 42.1078 2.616ZM74.0251 33H73.3771C73.0411 33 72.8011 32.832 72.6571 32.496L60.7051 5.136C60.3211 4.176 59.8891 3.504 59.4091 3.12C58.9291 2.688 58.3531 2.448 57.6811 2.4C57.1531 2.352 56.9131 2.088 56.9611 1.608C57.0091 1.128 57.2491 0.887999 57.6811 0.887999H72.7291C72.9691 0.887999 73.1611 0.959999 73.3051 1.104C73.4491 1.248 73.5211 1.416 73.5211 1.608V1.68C73.5211 2.112 73.3051 2.352 72.8731 2.4C72.0571 2.544 71.4571 2.952 71.0731 3.624C70.7371 4.248 70.7851 5.184 71.2171 6.432L77.1211 20.256C77.7451 18.72 78.7051 16.416 80.0011 13.344C81.3451 10.224 82.3531 7.872 83.0251 6.288C83.3611 5.088 83.3611 4.176 83.0251 3.552C82.6891 2.928 82.0891 2.544 81.2251 2.4C80.8411 2.352 80.6491 2.112 80.6491 1.68V1.608C80.6491 1.416 80.7211 1.248 80.8651 1.104C81.0091 0.959999 81.1771 0.887999 81.3691 0.887999H89.2891C89.7691 0.887999 90.0331 1.128 90.0811 1.608C90.0811 2.088 89.8411 2.352 89.3611 2.4C88.8811 2.448 88.4731 2.568 88.1371 2.76C87.8011 2.904 87.4651 3.168 87.1291 3.552C86.8411 3.936 86.5531 4.464 86.2651 5.136L74.7451 32.496C74.6011 32.832 74.3611 33 74.0251 33ZM119.045 25.656C117.989 27.432 116.429 28.968 114.365 30.264C112.349 31.512 110.213 32.376 107.957 32.856C105.701 33.288 103.397 33.12 101.045 32.352C98.6934 31.536 96.7734 30.096 95.2854 28.032C93.6534 25.824 92.6454 23.28 92.2614 20.4C91.9254 17.472 92.1414 14.712 92.9094 12.12C93.6774 9.48 94.9974 7.104 96.8694 4.992C98.7894 2.88 101.069 1.512 103.709 0.887999C105.101 0.455999 106.613 0.335999 108.245 0.527997C109.925 0.719998 111.485 1.08 112.925 1.608C114.365 2.136 115.541 3.048 116.453 4.344C117.413 5.64 117.869 7.176 117.821 8.952C117.773 11.016 117.077 12.72 115.733 14.064C114.389 15.408 112.805 16.272 110.981 16.656C109.157 16.992 107.357 17.112 105.581 17.016C103.805 16.872 102.413 16.512 101.405 15.936C101.741 19.152 102.605 21.936 103.997 24.288C105.389 26.592 107.213 27.936 109.469 28.32C112.493 28.752 115.205 27.528 117.605 24.648C117.845 24.312 118.157 24.264 118.541 24.504L118.829 24.648C119.261 24.888 119.333 25.224 119.045 25.656ZM106.373 2.616C104.645 2.952 103.325 4.224 102.413 6.432C101.549 8.64 101.165 11.232 101.261 14.208C105.485 14.64 108.389 13.392 109.973 10.464C111.077 8.448 111.173 6.504 110.261 4.632C109.445 3 108.149 2.328 106.373 2.616ZM124.035 11.256C124.035 10.008 123.867 8.976 123.531 8.16C123.243 7.344 122.643 6.744 121.731 6.36C121.395 6.264 121.227 6.048 121.227 5.712V5.496C121.227 5.016 121.467 4.752 121.947 4.704C122.859 4.656 123.819 4.368 124.827 3.84C125.883 3.312 126.795 2.784 127.563 2.256C128.331 1.728 129.243 1.32 130.299 1.032C131.355 0.695997 132.387 0.671998 133.395 0.959998V6.648C134.931 5.256 136.779 4.008 138.939 2.904C141.099 1.752 143.211 1.104 145.275 0.959998C148.347 0.671998 150.723 1.416 152.403 3.192C154.083 4.92 154.923 7.44 154.923 10.752V26.52C154.923 27.768 155.067 28.8 155.355 29.616C155.691 30.384 156.315 30.96 157.227 31.344C157.563 31.488 157.731 31.728 157.731 32.064V32.28C157.731 32.472 157.635 32.64 157.443 32.784C157.299 32.928 157.131 33 156.939 33H143.475C143.283 33 143.115 32.928 142.971 32.784C142.827 32.64 142.755 32.472 142.755 32.28V32.064C142.755 31.728 142.899 31.488 143.187 31.344C144.099 30.96 144.699 30.384 144.987 29.616C145.323 28.8 145.515 27.768 145.563 26.52V12.336C145.563 10.032 145.203 8.304 144.483 7.152C143.763 6 142.875 5.424 141.819 5.424C140.763 5.376 139.635 5.592 138.435 6.072C137.283 6.552 136.251 7.176 135.339 7.944C134.427 8.664 133.779 9.336 133.395 9.96V26.52C133.395 27.336 133.443 28.008 133.539 28.536C133.635 29.064 133.851 29.616 134.187 30.192C134.571 30.72 135.075 31.104 135.699 31.344C136.035 31.488 136.203 31.728 136.203 32.064V32.28C136.203 32.472 136.131 32.64 135.987 32.784C135.843 32.928 135.651 33 135.411 33H122.019C121.779 33 121.587 32.928 121.443 32.784C121.299 32.64 121.227 32.472 121.227 32.28V32.064C121.227 31.728 121.395 31.488 121.731 31.344C122.115 31.2 122.451 31.008 122.739 30.768C123.027 30.48 123.243 30.192 123.387 29.904C123.579 29.616 123.723 29.28 123.819 28.896C123.915 28.464 123.963 28.08 123.963 27.744C124.011 27.408 124.035 27 124.035 26.52C124.035 19.32 124.035 14.232 124.035 11.256Z" fill="white"/>
</svg>
