<svg width="48" height="48" viewBox="0 0 48 48" fill="none" xmlns="http://www.w3.org/2000/svg">
<path d="M43.4998 11.9203C42.0654 12.5391 40.5045 12.9844 38.8967 13.1578C40.566 12.1661 41.816 10.5994 42.4123 8.75158C40.8459 9.68341 39.1299 10.3368 37.3404 10.6828C36.5925 9.88327 35.6879 9.2463 34.6831 8.81162C33.6782 8.37693 32.5946 8.15385 31.4998 8.15627C27.0701 8.15627 23.5076 11.7469 23.5076 16.1531C23.5076 16.7719 23.5826 17.3906 23.7045 17.986C17.0717 17.6391 11.1561 14.4703 7.22324 9.61877C6.50664 10.8427 6.13112 12.2364 6.13574 13.6547C6.13574 16.4297 7.54668 18.8766 9.69824 20.3156C8.43029 20.2657 7.19204 19.9172 6.08418 19.2985V19.3969C6.08418 23.2828 8.83105 26.5031 12.492 27.2438C11.8046 27.4223 11.0975 27.5137 10.3873 27.5156C9.86699 27.5156 9.3748 27.4641 8.87793 27.3938C9.89043 30.5625 12.8389 32.8641 16.3498 32.9391C13.6029 35.0906 10.1623 36.3563 6.42637 36.3563C5.75605 36.3563 5.1373 36.3328 4.49512 36.2578C8.03887 38.5313 12.2436 39.8438 16.7717 39.8438C31.4717 39.8438 39.5154 27.6656 39.5154 17.0953C39.5154 16.7485 39.5154 16.4016 39.492 16.0547C41.0482 14.9156 42.4123 13.5047 43.4998 11.9203Z" fill="black"/>
</svg>
